<?xml version="1.0" standalone="no"?><!DOCTYPE svg PUBLIC "-//W3C//DTD SVG 1.1//EN" "http://www.w3.org/Graphics/SVG/1.1/DTD/svg11.dtd"><svg t="1753438210448" class="icon" viewBox="0 0 1024 1024" version="1.1" xmlns="http://www.w3.org/2000/svg" p-id="2562" xmlns:xlink="http://www.w3.org/1999/xlink" width="200" height="200"><path d="M809.389 123.183c164.243 164.243 164.243 430.534 0 594.777L512 1015.35 214.611 717.96c-164.243-164.243-164.243-430.534 0-594.777 164.243-164.244 430.535-164.244 594.778 0z m-527.19 67.588c-125.245 125.245-126.893 327.284-4.943 454.55l4.943 5.05L512 880.162l229.8-229.79c125.246-125.244 126.894-327.283 4.944-454.55l-4.943-5.05c-126.916-126.915-332.686-126.915-459.602 0z m326.776 68.176l64.65 64.65-96.976 96.974 96.975 96.975-64.65 64.65L512 485.22l-96.974 96.975-64.65-64.65 96.974-96.975-96.973-96.974 64.65-64.65 96.973 96.974 96.976-96.974z" fill="#bcdea9" p-id="2563" data-spm-anchor-id="a313x.search_index.0.i10.53333a81OknjWc" class="selected"></path></svg>