<?xml version="1.0" standalone="no"?><!DOCTYPE svg PUBLIC "-//W3C//DTD SVG 1.1//EN" "http://www.w3.org/Graphics/SVG/1.1/DTD/svg11.dtd"><svg t="1753685506376" class="icon" viewBox="0 0 1024 1024" version="1.1" xmlns="http://www.w3.org/2000/svg" p-id="4937" xmlns:xlink="http://www.w3.org/1999/xlink" width="200" height="200"><path d="M590.512 131.856m-90.096 0a5.631 5.631 0 1 0 180.192 0 5.631 5.631 0 1 0-180.192 0Z" fill="#bcdea9" p-id="4938"></path><path d="M838.432 444.896c-74.16-42.944-135.072-100.96-186.336-169.232-1.776-2.368-3.664-4.416-5.616-6.304-31.84-43.776-105.68-49.312-133.312-3.888-4.672 2.176-9.136 4.976-13.04 8.768-52.64 51.2-97.28 103.968-132.704 156.784-7.312 10.928-9.424 23.776-6.992 35.696l-0.688-0.192-38.896 145.312-82.96-22.208c-9.904-2.688-20.112 3.2-22.768 13.12l-78.56 293.424c-2.656 9.904 3.248 20.128 13.168 22.768l62.8 16.848c-4.768 17.808 2.48 37.376 19.104 47.392 20.08 12.176 46.272 5.712 58.432-14.4 11.296-18.736 6.48-42.688-10.464-55.712l44.56-166.448 28.624-107.008 37.072-138.432c5.392 2.064 11.024 3.2 16.656 3.2 15.168 0 30.064-7.328 39.152-20.88 15.44-23.056 32.992-46.16 52.384-69.168-0.976 64.352 1.024 128.704 6.624 192.912-0.896 1.296-1.92 2.544-2.704 3.968-54.032 99.344-87.024 191.344-120.592 305.488-7.712 26.208 7.312 53.696 33.536 61.408 5.92 1.744 11.904 2.336 17.712 1.904 19.92-1.52 37.744-15.12 43.712-35.392 29.104-99.008 57.248-179.168 101.072-264.08 2.224 0.096 4.48 0.096 6.704 0 28 83.552 56.032 167.12 84.032 250.704 20.432 60.944 114.912 29.296 94.496-31.648-30.608-91.376-61.216-182.672-91.824-273.984-1.776-5.328-4.176-9.872-6.96-13.84 0.736-5.856 0.832-12.096 0.24-18.64-5.088-56.336-7.2-112.56-6.656-168.832 43.088 41.328 90.88 77.136 143.968 107.888C854.336 562.928 890.544 475.12 838.432 444.896z" fill="#bcdea9" p-id="4939"></path></svg>